<svg width="332" height="325" viewBox="0 0 332 325" fill="none" xmlns="http://www.w3.org/2000/svg">
<path d="M330.487 323.686H186.987C210.587 286.486 212.82 220.186 210.987 191.686C210.187 164.486 189.987 152.686 179.987 150.186H48.487C32.087 150.586 20.3203 142.02 16.487 137.686C-8.71302 114.886 7.32032 92.5198 18.487 84.1865C64.487 82.5865 120.987 43.1865 143.487 23.6865C273.087 -39.9135 322.154 45.1865 330.487 95.6865V323.686Z" fill="#314658" stroke="#314658"/>
<path d="M15.174 84C91.775 69.2 132.041 32.5 142 24.5L141.004 150.5H40.918C-15.6304 135.7 -0.03258 100.167 15.174 84Z" fill="#F8A908" stroke="#F8A908"/>
<ellipse cx="227.382" cy="103.57" rx="63.8339" ry="39" transform="rotate(-16.5523 227.382 103.57)" fill="#82A4A9"/>
<circle cx="204.583" cy="40.5" r="12.5" fill="#000100"/>
<path d="M330.583 123C288.183 167.8 228.75 171.833 204.083 168.5C206.083 171.5 210.583 185.333 211.083 191C251.083 201 307.25 173.667 330.583 159V123Z" fill="#D9D9D9" stroke="#D3D5D5"/>
<path d="M71.0831 91.546C72.7497 90.3794 76.8831 88.746 80.0831 91.546" stroke="#935611" stroke-width="7" stroke-linecap="round"/>
<path d="M14.0831 139C8.58307 136.5 4.08307 128.5 2.08307 123.5C10.0831 132.3 68.5831 126 100.083 118C107.583 120 108.083 126.5 108.583 130C109.083 144.5 47.7497 141.833 14.0831 139Z" fill="#935611" stroke="#935611" stroke-linecap="round" stroke-linejoin="round"/>
</svg>
